<svg xmlns="http://www.w3.org/2000/svg" viewBox="0 0 540.02 385.63"><defs><style>.cls-1{fill:red;}.cls-2{fill:#0071bc;}.cls-3{fill:#00a99d;}</style></defs><g id="Layer_2" data-name="Layer 2"><g id="Layer_2-2" data-name="Layer 2"><path class="cls-1" d="M356.59,305.13c-2.08,1.08-4.23,2-6.39,2.94-12.34,5.29-25,9.79-37.69,14.25-9.8,3.46-19.61,7-29.56,10.05-7.95,2.44-16,4.56-24.07,6.56-21.33,5.3-42.85,9.82-64.39,14.15q-29,5.84-58.05,11.12h15.89q30.6-.07,61.21-.56c21.67-.38,43.34-.91,65-2.08a607.31,607.31,0,0,0,73.79-8.29c8.68-1.54,17.43-3.18,26-5.42a130.42,130.42,0,0,1-9.1-13.36,122.78,122.78,0,0,1-10.35-22.2c-.81-2.35-1.6-4.76-2.18-7.19Z"/><path class="cls-2" d="M356.21,302.73c-1.52,1-10.79,6.53-68,25.86S38.4,379.45,0,385.63a2127.17,2127.17,0,0,0,234-90.38c3.55-1.61,6.11-2.77,7.48-3.36a178.47,178.47,0,0,0,17.69-8.4,8,8,0,0,0,1.36.44,159,159,0,0,0,72.92,6.82,145.36,145.36,0,0,0,20.64-4.36C354.8,294.32,355.87,301.19,356.21,302.73Z"/><path class="cls-2" d="M410.52,240.42a155.91,155.91,0,0,1-55.79,21.89,151.7,151.7,0,0,1-42.7,1.81,154.76,154.76,0,0,1-20.74-3.47c.8-.86,2.22-2.34,4.23-4.25a7.78,7.78,0,0,0,.94.18A159.83,159.83,0,0,0,355,259.2a158.57,158.57,0,0,0,41.49-11.78A151.19,151.19,0,0,0,410.52,240.42Z"/><path class="cls-2" d="M399.29,217.71A156.44,156.44,0,0,1,379,218c-3.23-.17-6.44-.42-9.66-.79l2.23-.43,2.46-.45a24.22,24.22,0,0,0,4.93.58l.1,0A155.63,155.63,0,0,0,399.29,217.71Z"/><path class="cls-2" d="M427.34,208.55a155.93,155.93,0,0,0,18.5-1.57C442,207.21,435.79,207.66,427.34,208.55Z"/><path class="cls-2" d="M403.59,229.71c-3.82,1.28-7.69,2.43-11.61,3.41a156.44,156.44,0,0,1-51.88,4.13c-3-.27-6-.62-9-1.07-1.44-.21-2.87-.45-4.3-.71l-2.16-.41-.61-.15c1.61-1,3.28-1.9,5-2.84l1,.2.61.11s.05,0,.08,0a160.14,160.14,0,0,0,50.38,1.82A159.34,159.34,0,0,0,403.59,229.71Z"/><path class="cls-2" d="M536.15,201.5a44.17,44.17,0,0,0-10.59-4.44,35.76,35.76,0,0,0-5.69-1.2c-2-.23-4-.14-6-.28-1.13-.09-2.93-.23-3.78-1.16a22.92,22.92,0,0,0-5.05-2.13c-8.4-2.39-17.57-.64-25.74,1.86a125.67,125.67,0,0,0-23.16,10q-2.09,1.14-4.14,2.34l-.95.56c-.13.08-.27.15-.4.24l0,0,0,.06-.09.17a.56.56,0,0,0,.05-.08c.19-.33-.06.13-.05.08l-.09.16c-.11.2-.24.39-.35.59a30.76,30.76,0,0,0-2.3,5,71,71,0,0,0-3,12.29c-1.85,10.59-3,21.25-5.55,31.72a153.44,153.44,0,0,1-16.81,41.5c-10.31,17.6-23.68,33.17-38.26,47.37l1-.23c16.89-4.37,32.67-12.34,47.1-22a240.86,240.86,0,0,0,36.59-30.55,232.76,232.76,0,0,0,22.4-25.78,168,168,0,0,0,23.06-44.69,27.18,27.18,0,0,1,1.51-4.13c1.35-2.46,5.46-2.93,7.86-3.61a25,25,0,0,0,6.92-2.82,21.91,21.91,0,0,0,4-3.5,6,6,0,0,1,3-2.08,5.53,5.53,0,0,1,2.52.13C539.93,204.54,538.31,202.81,536.15,201.5Z"/><path class="cls-3" d="M436.18,82.54a157.15,157.15,0,0,0,14.15,123.72A156.58,156.58,0,0,1,452.42,0a156.17,156.17,0,0,1,31.36,9.43A156.76,156.76,0,0,0,436.18,82.54Z"/><path class="cls-3" d="M406.67,89.64a157.11,157.11,0,0,0,43.66,116.62A156.56,156.56,0,0,1,402.46,5.62a156.86,156.86,0,0,1,32.71,1.56A156.81,156.81,0,0,0,406.67,89.64Z"/><path class="cls-3" d="M379.75,103.66A157,157,0,0,0,395.19,147a155.87,155.87,0,0,0,55.14,59.24,156.07,156.07,0,0,1-81.13-72.32A156.15,156.15,0,0,1,355.34,23.16a156.35,156.35,0,0,1,32.12-6.39A156.75,156.75,0,0,0,379.75,103.66Z"/><path class="cls-3" d="M357,123.79a156.47,156.47,0,0,0,25.47,38.33,155.92,155.92,0,0,0,67.83,44.14,156.06,156.06,0,0,1-96.21-50.54A156.09,156.09,0,0,1,313.87,51.58a156.35,156.35,0,0,1,29.61-14A156.77,156.77,0,0,0,357,123.79Z"/><path class="cls-3" d="M339.85,148.81a156.45,156.45,0,0,0,34,31,156,156,0,0,0,76.49,26.42A156.59,156.59,0,0,1,280.5,89.19a156.21,156.21,0,0,1,25.35-20.73A156.75,156.75,0,0,0,339.85,148.81Z"/><path class="cls-3" d="M329.23,177.24a156.55,156.55,0,0,0,40.49,21.89,155.9,155.9,0,0,0,80.61,7.13,156.07,156.07,0,0,1-108.68.54,156,156,0,0,1-84.43-73.05,156,156,0,0,1,19.59-26.24A156.73,156.73,0,0,0,329.23,177.24Z"/><path class="cls-3" d="M325.81,207.4a157.18,157.18,0,0,0,124.52-1.14A156.07,156.07,0,0,1,345,233.08a156.08,156.08,0,0,1-99.59-50.46,155.82,155.82,0,0,1,12.65-30.2A156.81,156.81,0,0,0,325.81,207.4Z"/><path class="cls-3" d="M329.78,237.49a156.83,156.83,0,0,0,46,.32,155.91,155.91,0,0,0,74.53-31.55A156.59,156.59,0,0,1,245.79,232.9a156,156,0,0,1,5-32.37A156.72,156.72,0,0,0,329.78,237.49Z"/><path class="cls-3" d="M450.33,206.26q-1.29,2.49-2.67,4.93a156.11,156.11,0,0,1-77.73,68.2A160.13,160.13,0,0,1,353.71,285a156.16,156.16,0,0,1-95.4-3.36,156.21,156.21,0,0,1-3-32.61,156.74,156.74,0,0,0,85.62,16.75q6.29-.57,12.56-1.66a1.78,1.78,0,0,0,.39-.07A157.1,157.1,0,0,0,450,206.73Z"/><path class="cls-3" d="M355.41,286c.12.63.95,7.41,1.38,9.53.88,4.28,1.07,7.24,2.5,11.38.48,1.39,2.47,7.79,3.68,10.63a135.3,135.3,0,0,0,6.52,12.95,115.79,115.79,0,0,0,10.81,16c1.25-1.19,2.51-2.39,3.74-3.6A235.63,235.63,0,0,0,414.4,307a158.73,158.73,0,0,0,16.47-31.06,155.91,155.91,0,0,0,7.57-26.53c1.41-7.2,2.35-14.47,3.51-21.71.33-2,.69-4.11,1.11-6.16-2.69,4.06-5.54,8-8.6,11.82a157.33,157.33,0,0,1-34.07,31.49A160.09,160.09,0,0,1,355.41,286Z"/></g></g></svg>