<svg id="Layer_2" data-name="Layer 2" xmlns="http://www.w3.org/2000/svg" viewBox="0 0 1080 1080"><defs><style>.cls-1{fill:#1d1661;stroke:#000;stroke-miterlimit:10;}.cls-2{fill:#fff;}.cls-3{fill:red;}.cls-4{fill:#0071bc;}.cls-5{fill:#00a99d;}</style></defs><circle class="cls-1" cx="540" cy="540" r="369.3"/><polygon class="cls-2" points="361.94 702.78 374.57 702.78 374.57 650.85 390.17 650.85 390.17 638.65 346.95 638.65 346.95 650.85 361.94 650.85 361.94 702.78"/><path class="cls-2" d="M436.75,679.48a18.34,18.34,0,0,0,5.14-4.23,20.28,20.28,0,0,0,3.83-7.14,27.37,27.37,0,0,0,1.18-7.85,23.07,23.07,0,0,0-1.66-8.93,18.58,18.58,0,0,0-4.84-6.8,21.88,21.88,0,0,0-7.88-4.35,34.64,34.64,0,0,0-10.72-1.53H402.37v64.14H415V682.4h8.42L437,702.79h14.73ZM415,650.85h9.07a10.49,10.49,0,0,1,5.27,1.14,7.69,7.69,0,0,1,2.92,2.78,10.39,10.39,0,0,1,1.26,3.27,15.29,15.29,0,0,1,.31,2.66,10.86,10.86,0,0,1-.48,3,10.2,10.2,0,0,1-1.57,3.1,8.2,8.2,0,0,1-3,2.44,10.64,10.64,0,0,1-4.79,1h-9Z"/><path class="cls-2" d="M465.59,693.94A32.66,32.66,0,0,0,476,701a33,33,0,0,0,25.36,0,33.73,33.73,0,0,0,10.5-7A32.54,32.54,0,0,0,519,683.53a31.67,31.67,0,0,0,2.57-12.72A31.24,31.24,0,0,0,519,658.26a33.6,33.6,0,0,0-7.14-10.5,34.26,34.26,0,0,0-10.5-7.19,32.11,32.11,0,0,0-25.36,0,33.17,33.17,0,0,0-10.41,7.19,33.76,33.76,0,0,0-7,10.5A31.73,31.73,0,0,0,456,670.81a32.16,32.16,0,0,0,2.53,12.72A32.68,32.68,0,0,0,465.59,693.94Zm5-31.24a20.17,20.17,0,0,1,4.18-6.58,19.5,19.5,0,0,1,6.27-4.4,19.22,19.22,0,0,1,21.74,4.4A21.9,21.9,0,0,1,507,678.78a20.88,20.88,0,0,1-4.1,6.53,18.45,18.45,0,0,1-13.76,6,19.43,19.43,0,0,1-14.25-6,20.46,20.46,0,0,1-4.27-6.53,20.68,20.68,0,0,1-1.52-8A21.81,21.81,0,0,1,470.6,662.7Z"/><path class="cls-2" d="M539.43,694.73a31.69,31.69,0,0,0,10.72,6.44,40.64,40.64,0,0,0,14.12,2.31,32.91,32.91,0,0,0,6.27-.65,54.74,54.74,0,0,0,6.49-1.7,38.47,38.47,0,0,0,5.62-2.31,13.31,13.31,0,0,0,3.58-2.48v-27.1H562.35v12.2h11.07v7.75a12.46,12.46,0,0,1-3.84,1.27,29.27,29.27,0,0,1-5,.39,26.83,26.83,0,0,1-8.59-1.31,19.22,19.22,0,0,1-6.71-3.83,17.5,17.5,0,0,1-4.4-6.15,20.34,20.34,0,0,1-1.57-8.14,26.58,26.58,0,0,1,1.4-9,16.47,16.47,0,0,1,4.14-6.49,17.38,17.38,0,0,1,6.75-3.92,29.53,29.53,0,0,1,9.24-1.31,24.18,24.18,0,0,1,4.79.56,48.38,48.38,0,0,1,5.31,1.44,25.32,25.32,0,0,1,4.19,1.74l4.09-11.76a37.28,37.28,0,0,0-8.71-3.35A44.56,44.56,0,0,0,563.22,638a37.36,37.36,0,0,0-12.5,2.09,29.37,29.37,0,0,0-10.55,6.4,30.47,30.47,0,0,0-7.23,10.81,40.19,40.19,0,0,0-2.66,15.29,31.89,31.89,0,0,0,2.36,12.37A27.72,27.72,0,0,0,539.43,694.73Z"/><path class="cls-2" d="M606.22,693.94a32.66,32.66,0,0,0,10.41,7A33,33,0,0,0,642,701a33.73,33.73,0,0,0,10.5-7,32.73,32.73,0,0,0,7.15-10.41,31.67,31.67,0,0,0,2.57-12.72,31.24,31.24,0,0,0-2.57-12.55,33.8,33.8,0,0,0-7.15-10.5,34.26,34.26,0,0,0-10.5-7.19,32.11,32.11,0,0,0-25.36,0,33.17,33.17,0,0,0-10.41,7.19,33.73,33.73,0,0,0-7,10.5,31.55,31.55,0,0,0-2.53,12.55,32,32,0,0,0,2.53,12.72A32.66,32.66,0,0,0,606.22,693.94Zm5-31.24a20.19,20.19,0,0,1,4.19-6.58,19.4,19.4,0,0,1,6.27-4.4,19.22,19.22,0,0,1,21.74,4.4,21.9,21.9,0,0,1,4.23,22.66,21.06,21.06,0,0,1-4.1,6.53,18.45,18.45,0,0,1-13.77,6,19.43,19.43,0,0,1-14.24-6,20.3,20.3,0,0,1-4.27-6.53,20.69,20.69,0,0,1-1.53-8A21.81,21.81,0,0,1,611.23,662.7Z"/><polygon class="cls-2" points="732.26 705.4 732.61 705.4 732.61 638.65 719.89 638.65 720.14 677.3 675.36 636.13 674.84 636.13 674.84 702.78 687.65 702.78 687.4 664.87 732.26 705.4"/><path class="cls-2" d="M377.36,740.69l-28.93,66.66h12.46l5.23-12.55H387.4l5,12.55H407l-28.93-66.66Zm-6.82,43.48,6.51-15.63,6.16,15.63Z"/><rect class="cls-2" x="416.31" y="743.22" width="12.63" height="64.13"/><path class="cls-2" d="M485,779.81a20.2,20.2,0,0,0,3.83-7.14,27.36,27.36,0,0,0,1.18-7.84,23.09,23.09,0,0,0-1.66-8.94,18.55,18.55,0,0,0-4.84-6.79,21.74,21.74,0,0,0-7.88-4.36,35,35,0,0,0-10.72-1.52H445.5v64.13h12.63V787h8.42l13.54,20.39h14.73L479.88,784A18.17,18.17,0,0,0,485,779.81Zm-26.89-24.4h9.07a10.49,10.49,0,0,1,5.27,1.14,7.64,7.64,0,0,1,2.92,2.79,10.25,10.25,0,0,1,1.26,3.26,15.29,15.29,0,0,1,.31,2.66,10.62,10.62,0,0,1-.48,3,10.26,10.26,0,0,1-1.57,3.09,8.2,8.2,0,0,1-3,2.44,10.64,10.64,0,0,1-4.79,1h-9Z"/><polygon class="cls-2" points="579.86 743.65 566.27 743.65 555.42 779.26 541 743.65 528.45 743.65 533.53 756.31 523.71 780.73 511.11 743.65 496.3 743.65 522.09 810.31 539.88 772.14 555.12 810.14 579.86 743.65"/><path class="cls-2" d="M603.91,740.69,575,807.35h12.46l5.23-12.55H614l4.94,12.55h14.64l-28.93-66.66Zm-6.81,43.48,6.51-15.63,6.16,15.63Z"/><polygon class="cls-2" points="657.5 772.82 642.78 743.22 627.18 743.22 650.79 787.39 650.79 807.35 663.43 807.35 663.43 787.39 687.48 743.22 671.88 743.22 657.5 772.82"/><path class="cls-2" d="M727.65,776.55a20.81,20.81,0,0,0-4.93-3.58,51,51,0,0,0-5.53-2.48,61.93,61.93,0,0,1-5.88-2.53,17.22,17.22,0,0,1-4.62-3.18,5.59,5.59,0,0,1-1.79-4,5.68,5.68,0,0,1,2.36-5,11,11,0,0,1,6.44-1.65,21.91,21.91,0,0,1,7.11,1.3,49.06,49.06,0,0,1,7.45,3.32l4.79-9.68a44.45,44.45,0,0,0-8.67-4.35,36.16,36.16,0,0,0-12.59-1.83,24.31,24.31,0,0,0-10.46,2.66,17.54,17.54,0,0,0-7,6.49,18.24,18.24,0,0,0-2.49,9.67A15.59,15.59,0,0,0,698,774.8a31.2,31.2,0,0,0,5.88,3.62Q707,779.91,710,781a28,28,0,0,1,4.66,2.27,13.15,13.15,0,0,1,3.4,2.87,5.45,5.45,0,0,1,1.26,3.49,6,6,0,0,1-1.52,4.36,8.55,8.55,0,0,1-3.84,2.22,16.93,16.93,0,0,1-4.57.65,20.21,20.21,0,0,1-5-.69,29.68,29.68,0,0,1-5.36-2,30.64,30.64,0,0,1-4.92-2.91l-5.58,9.84A38.38,38.38,0,0,0,703,807.31a39.11,39.11,0,0,0,7.45.74,25.54,25.54,0,0,0,12-2.58,18.35,18.35,0,0,0,7.4-6.75,17.17,17.17,0,0,0,2.53-9.06,20.58,20.58,0,0,0-1.31-7.8A15.61,15.61,0,0,0,727.65,776.55Z"/><path class="cls-3" d="M589.65,532.4c-1.89,1-3.85,1.84-5.8,2.68-11.22,4.81-22.76,8.9-34.27,13-8.92,3.14-17.84,6.36-26.88,9.14-7.23,2.22-14.55,4.14-21.89,6-19.39,4.82-39,8.93-58.54,12.87q-26.36,5.29-52.79,10.11h14.45q27.82-.06,55.65-.51c19.71-.34,39.41-.82,59.09-1.89a553.47,553.47,0,0,0,67.09-7.53c7.9-1.4,15.85-2.89,23.62-4.94a119.16,119.16,0,0,1-8.28-12.14,111.66,111.66,0,0,1-9.41-20.19c-.74-2.14-1.45-4.32-2-6.54Z"/><path class="cls-4" d="M589.31,530.23c-1.38.9-9.81,5.93-61.87,23.51s-227.1,46.24-262,51.86a1931.91,1931.91,0,0,0,212.77-82.18c3.23-1.46,5.55-2.51,6.8-3a164.33,164.33,0,0,0,16.08-7.64,6.62,6.62,0,0,0,1.24.4,144.55,144.55,0,0,0,66.3,6.2,132.13,132.13,0,0,0,18.77-4C588,522.58,589,528.83,589.31,530.23Z"/><path class="cls-4" d="M638.69,473.57A141.77,141.77,0,0,1,588,493.47a138.05,138.05,0,0,1-38.82,1.65A139.8,139.8,0,0,1,530.28,492c.73-.78,2-2.12,3.85-3.86a6.35,6.35,0,0,0,.85.16,144.44,144.44,0,0,0,91-8.33A136.24,136.24,0,0,0,638.69,473.57Z"/><path class="cls-4" d="M628.48,452.92a142.31,142.31,0,0,1-18.47.27c-2.93-.15-5.85-.38-8.78-.72l2-.39,2.23-.41a22,22,0,0,0,4.49.53l.09,0A141.47,141.47,0,0,0,628.48,452.92Z"/><path class="cls-4" d="M654,444.59a142.72,142.72,0,0,0,16.82-1.43C667.33,443.37,661.67,443.78,654,444.59Z"/><path class="cls-4" d="M632.39,463.83q-5.21,1.76-10.56,3.1a141.87,141.87,0,0,1-31.09,4.26,143.89,143.89,0,0,1-16.08-.5c-2.74-.25-5.46-.57-8.17-1-1.31-.19-2.61-.4-3.91-.64l-2-.37-.55-.14c1.46-.87,3-1.73,4.54-2.58l.89.18.55.1a.15.15,0,0,1,.07,0,145.83,145.83,0,0,0,45.81,1.65A143.78,143.78,0,0,0,632.39,463.83Z"/><path class="cls-4" d="M752.92,438.18a40.35,40.35,0,0,0-9.63-4,32.55,32.55,0,0,0-5.17-1.09c-1.81-.21-3.62-.12-5.43-.26-1-.08-2.66-.2-3.44-1.05a20.38,20.38,0,0,0-4.59-1.93c-7.64-2.18-16-.59-23.4,1.69a113.22,113.22,0,0,0-21.06,9.12c-1.27.69-2.52,1.4-3.77,2.12l-.86.51-.37.22,0,0s0,0,0,.05l-.08.16,0-.07c.17-.31-.06.11,0,.07a1,1,0,0,0-.08.14c-.1.18-.22.36-.32.54a28.05,28.05,0,0,0-2.09,4.53,65.24,65.24,0,0,0-2.77,11.18c-1.68,9.63-2.75,19.33-5,28.84a139,139,0,0,1-15.28,37.74c-9.37,16-21.53,30.16-34.78,43.07l.88-.21c15.36-4,29.71-11.22,42.84-20a219.88,219.88,0,0,0,33.26-27.78A211.13,211.13,0,0,0,712,498.27a152.45,152.45,0,0,0,21-40.63,24.33,24.33,0,0,1,1.37-3.75c1.22-2.24,5-2.67,7.14-3.29a23.06,23.06,0,0,0,6.3-2.56,20.5,20.5,0,0,0,3.59-3.18,5.49,5.49,0,0,1,2.73-1.9,5,5,0,0,1,2.29.12C756.36,440.94,754.89,439.37,752.92,438.18Z"/><path class="cls-5" d="M662,330a142.89,142.89,0,0,0,12.87,112.5A142.38,142.38,0,0,1,676.79,255a142.4,142.4,0,0,1,28.51,8.58A142.5,142.5,0,0,0,662,330Z"/><path class="cls-5" d="M635.19,336.47a142.83,142.83,0,0,0,39.7,106,142.36,142.36,0,0,1-43.53-182.44,142.15,142.15,0,0,1,29.74,1.43A142.51,142.51,0,0,0,635.19,336.47Z"/><path class="cls-5" d="M610.71,349.22a142.89,142.89,0,0,0,64.18,93.29A142.37,142.37,0,0,1,588.52,276a142.23,142.23,0,0,1,29.2-5.81A142.57,142.57,0,0,0,610.71,349.22Z"/><path class="cls-5" d="M590.05,367.52a142.91,142.91,0,0,0,84.84,75A142.35,142.35,0,0,1,550.81,301.86a142.07,142.07,0,0,1,26.93-12.7A142.52,142.52,0,0,0,590.05,367.52Z"/><path class="cls-5" d="M574.43,390.27a142.92,142.92,0,0,0,100.46,52.24A142.38,142.38,0,0,1,520.47,336.06a142.1,142.1,0,0,1,23-18.85A142.59,142.59,0,0,0,574.43,390.27Z"/><path class="cls-5" d="M564.78,416.12a142.92,142.92,0,0,0,110.11,26.39A142.39,142.39,0,0,1,499.3,376.58a141.68,141.68,0,0,1,17.81-23.86A142.6,142.6,0,0,0,564.78,416.12Z"/><path class="cls-5" d="M561.66,443.54a142.87,142.87,0,0,0,113.23-1A142.36,142.36,0,0,1,488.57,421a142.06,142.06,0,0,1,11.51-27.46A142.43,142.43,0,0,0,561.66,443.54Z"/><path class="cls-5" d="M565.28,470.9a142.92,142.92,0,0,0,109.61-28.39,142.41,142.41,0,0,1-186,24.22,141.59,141.59,0,0,1,4.53-29.43A142.44,142.44,0,0,0,565.28,470.9Z"/><path class="cls-5" d="M674.89,442.5c-.79,1.51-1.59,3-2.43,4.49a142,142,0,0,1-70.68,62,145.9,145.9,0,0,1-14.75,5,141.84,141.84,0,0,1-86.74-3,142.77,142.77,0,0,1-2.74-29.65,142.64,142.64,0,0,0,77.85,15.23q5.72-.52,11.43-1.51a1.55,1.55,0,0,0,.35-.07,142.76,142.76,0,0,0,87.37-52.07C674.66,442.8,674.78,442.65,674.89,442.5Z"/><path class="cls-5" d="M588.59,515c.1.57.85,6.74,1.25,8.66.8,3.9,1,6.59,2.27,10.35.43,1.27,2.25,7.09,3.35,9.67a121.1,121.1,0,0,0,5.92,11.77A105.85,105.85,0,0,0,611.21,570c1.14-1.08,2.28-2.17,3.4-3.27a213.68,213.68,0,0,0,27.61-32.66,144.42,144.42,0,0,0,15-28.25,141.28,141.28,0,0,0,6.89-24.12c1.28-6.54,2.13-13.15,3.19-19.73.3-1.87.63-3.75,1-5.6-2.45,3.69-5,7.28-7.82,10.74a142.84,142.84,0,0,1-31,28.63A145.64,145.64,0,0,1,588.59,515Z"/></svg>